<svg xmlns="http://www.w3.org/2000/svg" width="790.533" height="191.733"><g fill="#fff"><path d="M276.892 56.876c0-1.69 1.45-3.14 3.139-3.14 1.693 0 3.144 1.45 3.144 3.14v76.104h47.23c1.572 0 2.9 1.328 2.9 2.9 0 1.572-1.328 2.9-2.9 2.9h-50.374c-1.688 0-3.139-1.45-3.139-3.141V56.876M359.997 103.627V56.876c0-1.69 1.45-3.14 3.14-3.14 1.692 0 3.142 1.45 3.142 3.14v46.147c0 19.931 10.752 31.408 28.63 31.408 17.152 0 28.146-10.39 28.146-30.804V56.876c0-1.69 1.449-3.14 3.14-3.14 1.692 0 3.141 1.45 3.141 3.14v46.026c0 24.281-14.133 37.206-34.67 37.206-20.294 0-34.669-12.804-34.669-36.48M465.207 56.997c0-1.69 1.452-3.14 3.14-3.14h.968c1.328 0 2.296.723 3.14 1.812l57.017 72.36 6.04 8.455c0 1.45-1.085 2.659-2.536 2.659h-.484c-1.207 0-2.173-.848-3.14-2.055l-58.105-73.689-6.04-6.402M582.739 115.103l-9.906 21.864c-.604 1.45-1.569 2.296-3.021 2.296-1.568 0-2.899-1.208-2.899-2.659 0-.481.123-1.208.484-1.932l36.119-78.279c.845-1.813 2.053-3.02 4.228-3.02h.241c2.175 0 3.383 1.207 4.23 3.02l35.997 78.038c.363.725.484 1.328.484 1.932 0 1.572-1.328 2.9-3.02 2.9-1.45 0-2.536-1.087-3.14-2.415l-9.907-21.745-2.658-5.678L607.744 60.5l-22.348 48.926-2.657 5.678M686.5 53.736h29.233c10.388 0 18.723 3.261 23.798 8.335 3.986 3.987 6.402 9.664 6.402 15.704v.243c0 14.131-10.51 22.225-24.764 24.157l24.038 31.169c.604.724.968 1.45.968 2.172 0 1.692-1.572 3.264-3.262 3.264-1.208 0-2.054-.725-2.778-1.692l-25.972-33.824H686.5v-5.677h28.51c14.13 0 24.64-7.128 24.64-19.33v-.239c0-11.355-8.938-18.483-24.28-18.483H686.5v-5.799"/></g></svg>